<?xml version="1.0" standalone="no"?>
<!DOCTYPE svg PUBLIC "-//W3C//DTD SVG 20010904//EN"
 "http://www.w3.org/TR/2001/REC-SVG-20010904/DTD/svg10.dtd">
<svg version="1.0" xmlns="http://www.w3.org/2000/svg"
 width="700.000000pt" height="700.000000pt" viewBox="0 0 700.000000 700.000000"
 preserveAspectRatio="xMidYMid meet">
<metadata>
Created by potrace 1.14, written by Peter Selinger 2001-2017
</metadata>
<g transform="translate(0.000000,700.000000) scale(0.100000,-0.100000)"
fill="#000000" stroke="none">
<path d="M672 6989 c-35 -4 -98 -20 -140 -34 -281 -93 -484 -341 -522 -635
-13 -105 -13 -5528 0 -5636 44 -354 320 -630 674 -674 111 -14 5521 -14 5632
0 354 45 629 320 674 674 14 111 14 5521 0 5632 -45 355 -319 629 -674 674
-98 12 -5549 12 -5644 -1z m5551 -429 c179 -26 311 -158 337 -337 13 -93 13
-5353 0 -5446 -26 -178 -159 -311 -337 -337 -83 -12 -972 -13 -1065 -1 -138
18 -243 93 -305 219 l-38 76 -5 795 -5 796 -23 57 c-33 81 -108 160 -190 200
l-67 33 -585 0 -585 0 -61 -28 c-77 -36 -154 -113 -191 -192 l-28 -60 -5 -355
c-6 -340 -7 -357 -29 -413 -46 -116 -138 -203 -252 -238 -62 -19 -88 -20 -405
-17 l-339 3 -65 31 c-83 39 -155 111 -194 194 l-31 65 0 1895 0 1895 31 65
c39 83 111 155 194 194 l65 31 338 3 c290 3 346 1 395 -13 129 -37 229 -135
275 -270 6 -17 13 -183 16 -385 l6 -355 28 -60 c37 -79 114 -156 191 -192 l61
-28 585 0 585 0 67 33 c81 39 158 121 191 202 l22 55 5 796 5 795 38 76 c60
122 168 202 296 218 86 11 997 11 1074 0z"/>
</g>
</svg>
